<svg id="Layer_1_1_" enable-background="new 0 0 64 64" height="512" viewBox="0 0 64 64" width="512" xmlns="http://www.w3.org/2000/svg"><path d="m47 3h-30l.426 4h29.148z" fill="#f9d7b1"/><path d="m42 50 4.574-43h-29.148l4.574 43z" fill="#f9e4cc"/><path d="m22 57h6c0-1.657 1.343-3 3-3h2c1.657 0 3 1.343 3 3h6v-7h-20z" fill="#f35142"/><path d="m33 54h-2c-1.657 0-3 1.343-3 3h8c0-1.657-1.343-3-3-3z" fill="#c43325"/><path d="m22 57v1c0 1.657 1.343 3 3 3h14c1.657 0 3-1.343 3-3v-1z" fill="#f35142"/><circle cx="32" cy="23" fill="#f98600" r="5"/><path d="m39 59h-14c-1.304 0-2.403-.837-2.816-2h-.184v1c0 1.657 1.343 3 3 3h14c1.657 0 3-1.343 3-3v-1h-.184c-.413 1.163-1.512 2-2.816 2z" fill="#ed4f40"/><path d="m19.822 20.338-2.171-13.338h-.226l4.575 43h20l.525-4.931c-11.591-2.92-20.707-12.474-22.703-24.731z" fill="#f9dec0"/><path d="m22 56h20v1h-20z" fill="#c43325"/><g fill="#f98600"><path d="m31 12h2v3h-2z"/><path d="m31 31h2v3h-2z"/><path d="m21 22h3v2h-3z"/><path d="m40 22h3v2h-3z"/><path d="m24.282 14.782h2v3h-2z" transform="matrix(.707 -.707 .707 .707 -4.108 22.646)"/><path d="m37.718 28.218h2v3h-2z" transform="matrix(.707 -.707 .707 .707 -9.674 36.082)"/><path d="m23.782 28.718h3v2h-3z" transform="matrix(.707 -.707 .707 .707 -13.609 26.581)"/><path d="m37.218 15.282h3v2h-3z" transform="matrix(.707 -.707 .707 .707 -.173 32.147)"/></g></svg>