<?xml version="1.0" encoding="iso-8859-1"?>
<!-- Generator: Adobe Illustrator 19.1.1, SVG Export Plug-In . SVG Version: 6.00 Build 0)  -->
<svg version="1.1" id="Layer_1" xmlns="http://www.w3.org/2000/svg" xmlns:xlink="http://www.w3.org/1999/xlink" x="0px" y="0px"
	 viewBox="0 0 40 40" style="enable-background:new 0 0 40 40;" xml:space="preserve">
<g>
	<path style="fill:#c9b299;" d="M14.495,38.496c-0.678-0.011-1.203-0.03-1.463-0.055c-1.58-0.136-4.393-1.308-5.522-7.631
		c-1.12-6.29-2.291-13.37-2.011-17.778c0.447-7.03,3.202-11.302,7.396-11.523l-0.274,0.216l1.783-0.221c0.012,0,0.024,0,0.036,0
		c5.721,0,9.098,0.951,12.4,2.377c4.406,1.906,6.743,4.379,7.355,7.782c0.593,3.295,0.299,5.732-2.951,9.908
		c-1.054,1.353-2.897,3.647-4.615,5.785l-0.995,1.239c-1.344,1.671-2.545,3.165-3.041,3.808c-0.13,0.168-0.275,0.359-0.433,0.574
		c-1.062,1.408-2.827,3.752-5.064,5.261c-0.442,0.144-1.704,0.255-2.353,0.258L14.495,38.496z M13.418,9.5
		c-1.38,0-1.918,1.72-1.918,6.136c0,2.936,0.857,13.864,3.431,13.864c2.452,0,3.569-4.21,3.569-8.123
		C18.5,12.47,14.494,9.5,13.418,9.5z M26.5,9.5c-2.206,0-4,2.019-4,4.5s1.794,4.5,4,4.5s4-2.019,4-4.5S28.706,9.5,26.5,9.5z"/>
	<path style="fill:#a78867;" d="M14.466,2c5.627,0.009,8.94,0.942,12.176,2.34c4.239,1.834,6.483,4.189,7.062,7.411
		c0.579,3.218,0.299,5.462-2.853,9.513c-1.063,1.364-2.981,3.751-4.673,5.858l-0.388,0.482l-0.641,0.797
		c-1.321,1.643-2.462,3.062-2.952,3.698c-0.131,0.171-0.28,0.365-0.438,0.58c-1.029,1.366-2.741,3.638-4.88,5.101
		c-0.382,0.101-1.456,0.212-2.138,0.215l-0.226,0.001c-0.673-0.011-1.19-0.03-1.444-0.054c-2.475-0.213-4.275-2.777-5.068-7.22
		c-0.862-4.84-2.305-12.942-2.005-17.659c0.361-5.667,2.237-9.466,5.149-10.661L14.463,2L14.466,2 M26.5,19c2.482,0,4.5-2.243,4.5-5
		s-2.019-5-4.5-5c-2.481,0-4.5,2.243-4.5,5S24.018,19,26.5,19 M14.93,30c2.811,0,4.07-4.331,4.07-8.623C19,11.964,14.649,9,13.418,9
		C11.405,9,11,11.539,11,15.636C11,15.78,11.293,30,14.93,30 M14.387,1c-0.016,0.002-0.029,0.006-0.044,0.008
		c0.003-0.002,0.006-0.005,0.01-0.007C13.755,1,13.25,1,13.239,1C8.566,1,5.475,5.539,5,13c-0.295,4.633,0.997,12.167,2.018,17.898
		c1.187,6.649,4.224,7.891,5.967,8.041c0.373,0.035,1.129,0.053,1.767,0.061c-0.002-0.001-0.004-0.003-0.006-0.005
		c0.62-0.003,2.067-0.111,2.577-0.308c2.337-1.557,4.159-3.979,5.24-5.414c0.155-0.211,0.299-0.399,0.426-0.565
		c0.561-0.728,2.028-2.548,3.579-4.478c1.839-2.289,3.923-4.879,5.071-6.352c3.365-4.323,3.668-6.862,3.049-10.304
		c-0.644-3.583-3.072-6.172-7.649-8.152C23.846,2.043,20.369,1,14.387,1L14.387,1z M26.5,18c-1.932,0-3.5-1.79-3.5-4s1.566-4,3.5-4
		c1.933,0,3.5,1.79,3.5,4S28.433,18,26.5,18L26.5,18z M14.93,29C13.248,29,12,20.475,12,15.636C12,10.799,12.695,10,13.418,10
		S18,12.687,18,21.377C18,25.224,16.875,29,14.93,29L14.93,29z"/>
</g>
<path style="fill:#a78867;" d="M9.63,30.092C8.206,23.014,8.172,17.351,8,13c0-7.125,3.211-11,7-11c-0.597-0.001-1.75-1-1.761-1
	C8.566,1,5,5.875,5,13c0,5.125,0.667,11.582,1.688,17.313c1.187,6.649,4.554,8.476,6.298,8.626C13.358,38.974,14.362,37.992,15,38
	C13.247,38,10.473,34.278,9.63,30.092"/>
</svg>
