<?xml version="1.0" encoding="iso-8859-1"?>
<!-- Generator: Adobe Illustrator 19.0.0, SVG Export Plug-In . SVG Version: 6.00 Build 0)  -->
<svg version="1.1" id="Capa_1" xmlns="http://www.w3.org/2000/svg" xmlns:xlink="http://www.w3.org/1999/xlink" x="0px" y="0px"
	 viewBox="0 0 492.8 492.8" style="enable-background:new 0 0 492.8 492.8;" xml:space="preserve">
<path style="fill:#FDD825;" d="M302.4,317.2l4.8-11.2c9.6-22.4,5.6-48.8-10.4-68l-2.4-1.6V134.8l10.4,3.2
	c80,22.4,140,88.8,154.4,170.4l1.6,9.6L302.4,317.2z"/>
<circle style="fill:#34BFD8;" cx="246.4" cy="281.2" r="35.2"/>
<path style="fill:#FDD825;" d="M282.4,226c-21.6-14.4-49.6-14.4-71.2,0l-12,8V97.2h96V234L282.4,226z"/>
<path style="fill:#E8E8E8;" d="M246.4,346c-36,0-65.6-29.6-65.6-65.6s29.6-65.6,65.6-65.6s65.6,29.6,65.6,65.6l0,0
	C312,317.2,282.4,346,246.4,346z M246.4,246c-19.2,0-35.2,16-35.2,35.2s16,35.2,35.2,35.2s35.2-16,35.2-35.2S265.6,246,246.4,246
	L246.4,246z"/>
<g>
	<path style="fill:#FDD825;" d="M8.8,371.6v-54.4h184l2.4,3.2c21.6,28.8,62.4,34.4,91.2,12.8c4.8-4,8.8-8,12.8-12.8l2.4-3.2h183.2
		v54.4H8.8z"/>
	<path style="fill:#FDD825;" d="M32,317.2l1.6-9.6c15.2-81.6,75.2-148,154.4-170.4l10.4-2.4v101.6l-1.6,2.4
		c-16,18.4-20,44.8-10.4,67.2l4,11.2H32z"/>
</g>
<rect x="32" y="371.6" style="fill:#E8E8E8;" width="429.6" height="24"/>
<g>
	<path style="fill:#3F2300;" d="M476.8,309.2H468c-15.2-87.2-80-158.4-165.6-180v-24c0-8.8-7.2-16-16-16h-80c-8.8,0-16,7.2-16,16v24
		C104.8,150.8,40,222,24.8,309.2H16c-8.8,0-16,7.2-16,16v38.4c0,8.8,7.2,16,16,16h8v16c0,4.8,3.2,8,8,8h428.8c4.8,0,8-3.2,8-8v-16h8
		c8.8,0,16-7.2,16-16v-38.4C492.8,316.4,485.6,309.2,476.8,309.2L476.8,309.2z M302.4,145.2c76.8,21.6,135.2,85.6,148.8,164H314.4
		c10.4-25.6,6.4-55.2-12-76V145.2z M206.4,105.2h80v114.4c-24-16-56-16-80,0V105.2z M246.4,223.6c32,0,57.6,25.6,57.6,57.6
		s-25.6,57.6-57.6,57.6s-57.6-25.6-57.6-57.6l0,0C188.8,249.2,214.4,223.6,246.4,223.6L246.4,223.6L246.4,223.6z M190.4,146v88
		c-17.6,20.8-22.4,50.4-12,76H41.6C55.2,230.8,113.6,166.8,190.4,146L190.4,146z M452.8,387.6H40v-8h413.6v8H452.8z M460.8,363.6
		h-444v-38.4H188c24,32,70.4,38.4,102.4,14.4c5.6-4,10.4-8.8,14.4-14.4h172v38.4H460.8z"/>
	<path style="fill:#3F2300;" d="M246.4,324.4c24,0,43.2-19.2,43.2-43.2S270.4,238,246.4,238s-43.2,19.2-43.2,43.2
		S222.4,324.4,246.4,324.4L246.4,324.4z M246.4,254c15.2,0,27.2,12,27.2,27.2s-12,27.2-27.2,27.2c-15.2,0-27.2-12-27.2-27.2
		S231.2,254,246.4,254L246.4,254z"/>
</g>
<g>
</g>
<g>
</g>
<g>
</g>
<g>
</g>
<g>
</g>
<g>
</g>
<g>
</g>
<g>
</g>
<g>
</g>
<g>
</g>
<g>
</g>
<g>
</g>
<g>
</g>
<g>
</g>
<g>
</g>
</svg>
