<svg class="wardrobe goggles" version="1.1" id="Capa_1" xmlns="http://www.w3.org/2000/svg" xmlns:xlink="http://www.w3.org/1999/xlink" x="0px" y="0px"
	 viewBox="0 0 450 450" style="enable-background:new 0 0 450 450;" xml:space="preserve">
<g>
	<g id="Layer_1_92_">
		<path d="M414.833,210.887v-11.062c0-25.951-19.845-50.172-54.445-66.473c-36.866-17.359-102.459-23.828-135.144-23.828
			c-35.304,0-100.727,7.392-135.629,23.828c-34.602,16.301-54.446,40.521-54.446,66.473v11.062
			c-16.547,3.129-35.548,8.95-35.163,19.187c0.481,12.816,1.292,22.593,4.462,34.807c1.243,4.789,16.916,1.449,31.151-2.672
			c3.272,30.138,24.753,55.652,54.529,63.627c14.903,4.391,50.04,14.297,64.404,14.606c0.506,0.024,1.015,0.032,1.52,0.032
			c23.716,0,40.286-23.354,56.305-45.941c3.549-5,8.701-12.269,12.828-17.217c4.07,4.936,9.144,12.167,12.638,17.14
			c15.887,22.628,32.318,46.015,56.082,46.019c0.002,0,0.004,0,0.005,0c0.504,0,1.013-0.008,1.518-0.032
			c14.364-0.31,49.5-10.216,64.405-14.606c29.774-7.975,51.256-33.489,54.529-63.627c14.235,4.121,29.908,7.461,31.15,2.672
			c3.171-12.214,3.981-21.99,4.462-34.807C450.379,219.837,431.379,214.016,414.833,210.887z M75.642,193.347
			c0-7.3,9.769-19.749,31.218-29.851c9.274-4.371,22.693-8.214,37.771-11.334l-68.989,68.991
			C75.642,221.153,75.642,193.347,75.642,193.347z M75.642,247.711v-11.992l86.792-86.791c6.22-0.987,12.547-1.854,18.843-2.584
			L75.887,251.737C75.729,250.414,75.642,249.067,75.642,247.711z M374.36,247.711c0,15.296-10.33,28.698-25.12,32.593l-0.569,0.163
			c-20.785,6.122-47.096,12.758-53.667,13.024c-1.06-0.613-3.837-2.553-8.622-8.127c-5.013-5.834-10.303-13.365-15.414-20.644
			c-14.422-20.536-26.875-38.268-45.723-38.268c-18.787,0-31.341,17.692-45.872,38.185c-5.182,7.304-10.539,14.853-15.611,20.704
			c-4.865,5.605-7.676,7.547-8.735,8.149c-6.603-0.268-32.906-6.902-53.695-13.025l-0.567-0.162
			c-5.867-1.54-11.027-4.587-15.124-8.652L213.29,143.999l-0.215-0.215c4.229-0.172,8.311-0.266,12.169-0.266
			c36.456,0,92.531,8.025,117.898,19.978c21.448,10.102,31.217,22.551,31.217,29.851L374.36,247.711L374.36,247.711z"/>
	</g>
</svg>
